<?xml version="1.0" encoding="utf-8"?>
<!-- Generator: Adobe Illustrator 14.0.0, SVG Export Plug-In . SVG Version: 6.00 Build 43363)  -->
<!DOCTYPE svg PUBLIC "-//W3C//DTD SVG 1.1//EN" "http://www.w3.org/Graphics/SVG/1.1/DTD/svg11.dtd">
<svg version="1.1" id="Layer_1" xmlns="http://www.w3.org/2000/svg" xmlns:xlink="http://www.w3.org/1999/xlink" x="0px" y="0px"
	 width="313.771px" height="207.142px" viewBox="0 0 313.771 207.142" enable-background="new 0 0 313.771 207.142"
	 xml:space="preserve">
<symbol  id="Bloomsburg_Museum_Logo" viewBox="-279.965 -170 559.965 340">
	<g>
		
			<image overflow="visible" opacity="0.75" width="493" height="340" xlink:href="1E7A5EB7.png"  transform="matrix(1 0 0 -1 -213 170)">
		</image>
		<g>
			<polygon fill="#0D9AFF" points="-197.781,158.719 -197.781,-147.023 -114.388,-94.543 -36.108,-147.023 37.29,-101.291 
				112.666,-147.023 179.76,-94.543 264.358,-143.344 264.358,161.656 			"/>
		</g>
	</g>
	<polygon display="none" fill="#F9ED12" stroke="#FFEB76" stroke-width="8" points="-24.7,-20.574 -110.715,-27.094 
		-154.104,-101.646 -186.886,-21.859 -271.198,-3.631 -205.445,52.201 -214.163,138.018 -140.745,92.738 -61.821,127.551 
		-82.198,43.73 	"/>
	<polygon fill="#F9ED12" stroke="#FFEB76" stroke-width="8" points="46.418,98.337 34.556,111.825 16.647,110.439 25.891,125.033 
		18.382,141.081 35.96,136.613 49.229,147.917 50.847,130.562 66.556,121.497 49.978,115.241 	"/>
	<polygon fill="#F9ED12" stroke="#FFEB76" stroke-width="8" points="236.676,96.377 221.706,99.172 210.481,88.877 209.014,103.449 
		195.608,110.23 209.674,116.445 212.613,130.926 222.771,120.193 237.995,122.367 230.208,109.52 	"/>
	<text transform="matrix(1 0 0 -1 -159.2886 61.9785)" fill="#FFFFFF" font-family="'GillSans-ExtraBold'" font-size="36">Bloomsburg</text>
	<path fill="#FFFFFF" d="M-146.877,39.779l-2.919-30.881c-3.044,0.566-6.202,0.301-9.476-0.799
		c-4.691-1.576-6.578-4.373-5.658-8.393c0.438-1.924,1.437-3.205,2.992-3.848c1.557-0.643,3.547-0.555,5.968,0.258
		c3.272,1.1,5.876,2.973,7.811,5.619l16.065-26.666c-2.053-3.35-4.766-6.391-8.139-9.111c-3.373-2.723-6.75-4.654-10.131-5.791
		c-8.489-2.852-16.13-1.268-22.92,4.752c-6.793,6.021-11.475,14.664-14.048,25.93c-2.722,11.918-2.351,22.627,1.117,32.133
		s9.238,15.613,17.312,18.326c3.492,1.174,7.27,1.639,11.331,1.395S-149.946,41.484-146.877,39.779z"/>
	<path fill="#FFFFFF" d="M-100.67,40.369l-4.594-36.701c3.977,5.609,8.451,7.957,13.421,7.045c4.589-0.846,7.932-3.74,10.027-8.686
		c2.095-4.941,2.645-11.387,1.651-19.332l-4.044-32.301l-19.611,3.609l3.597,28.738c0.707,5.643-0.25,8.705-2.868,9.188
		c-1.187,0.217-2.481-0.438-3.888-1.963l-4.328-34.586l-20.787,3.828l10.639,84.986L-100.67,40.369z"/>
	<path fill="#FFFFFF" d="M-53.493,23.5l6.761-67.326l-20.836-3.078l-6.761,67.326c3-2.168,6.691-2.928,11.075-2.281
		C-59.186,18.742-55.931,20.527-53.493,23.5z M-59.471,22.389c-1.619-0.238-3.109,0.523-4.473,2.289
		c-1.364,1.766-2.181,3.992-2.449,6.674c-0.27,2.686,0.084,5.064,1.062,7.139s2.276,3.23,3.895,3.469s3.097-0.506,4.433-2.238
		c1.338-1.732,2.143-3.939,2.411-6.625c0.27-2.684-0.071-5.08-1.023-7.188S-57.853,22.627-59.471,22.389z"/>
	<path fill="#FFFFFF" d="M-21.965-46.836l-20.861,2.832l7.885,85.428l20.859-2.83L-21.965-46.836z"/>
	<path fill="#FFFFFF" d="M29.986,43.877l9.511-85.182l-24.739-4.064C7.196-46.611,0.966-44.336-3.93-38.547
		c-4.896,5.791-7.893,13.598-8.99,23.422c-1.066,9.564-0.059,17.869,3.029,24.912c3.086,7.045,7.468,11.033,13.145,11.965
		c3.141,0.514,5.846,0.143,8.11-1.113L9.152,40.455L29.986,43.877z M15.931-20.277L14.244-5.15c-1.158,0.947-2.386,1.314-3.688,1.1
		C9.322-4.254,8.39-5.23,7.764-6.98c-0.626-1.752-0.804-3.857-0.529-6.312c0.32-2.867,1.042-4.879,2.166-6.039
		c1.122-1.162,2.751-1.566,4.883-1.217L15.931-20.277z"/>
	<path fill="#FFFFFF" d="M65.395,7.189c3.532,9.898,7.821,14.533,12.866,13.898c2.814-0.354,5.004-2.178,6.566-5.469
		c1.562-3.293,2.143-7.291,1.739-11.998c-0.421-4.932-1.657-8.805-3.708-11.627c-2.051-2.818-4.518-4.047-7.4-3.686
		c-3.287,0.414-5.928,2.824-7.918,7.227c-2.322-2.652-3.821-7.939-4.498-15.859l-2.15-25.156l-20.878,2.625l5.767,67.461
		l20.877-2.625L65.395,7.189z"/>
	<path fill="#FFFFFF" d="M133.903-9.787l3.579-11.064c-1.27-11.336-5.921-18.914-13.953-22.736
		c-6.617-3.148-12.926-2.633-18.927,1.555c-5.999,4.186-10.611,11.258-13.834,21.221c-3.065,9.473-3.716,18.08-1.95,25.818
		s5.599,13.012,11.5,15.818c3.016,1.436,6.08,1.926,9.193,1.471c3.114-0.453,6.137-1.859,9.064-4.219
		c2.928-2.357,5.529-5.477,7.807-9.355c2.275-3.879,4.416-8.912,6.418-15.102l-19.951-9.492c1.757-2.875,3.773-4.822,6.047-5.834
		c2.275-1.016,4.498-1.008,6.668,0.025C129.949-19.596,132.729-15.633,133.903-9.787z M108.099-5.365l9.2,4.379
		c-1.101,3.107-2.365,5.338-3.79,6.697c-1.424,1.359-2.822,1.713-4.192,1.062c-1.201-0.574-1.972-1.916-2.308-4.033
		C106.673,0.621,107.037-2.078,108.099-5.365z"/>
	<path fill="#FFFFFF" d="M164.667,22.365l-0.855-8.441c4.115,5.477,8.609,7.852,13.486,7.127c4.741-0.707,8.154-3.438,10.239-8.195
		c2.085-4.756,2.69-11.439,1.819-20.049l-4.238-41.822l-19.687,2.934l3.976,39.25c0.567,5.592-0.431,8.578-2.993,8.959
		c-1.235,0.184-2.557-0.355-3.962-1.623l-4.606-45.455l-20.832,3.104l6.82,67.318L164.667,22.365z"/>
	<path fill="#FFFFFF" d="M194.46-11.211l-0.646,0.73c3.193,3.23,4.981,8.037,5.366,14.422c-6.022,2.967-9.034,8.957-9.034,17.971
		c0,5.52,1.109,10.188,3.328,13.996c2.22,3.811,4.937,5.719,8.152,5.719c3.261,0,5.938-1.908,8.032-5.719
		c2.094-3.809,3.142-8.701,3.142-14.674c0-7.51-1.743-14.418-5.231-20.729C204.083-5.805,199.714-9.709,194.46-11.211z"/>
	<path fill="#FFFFFF" d="M218.481-43.055l1.823,19.748c1.9-2.869,3.986-4.977,6.258-6.33c2.271-1.355,4.378-1.818,6.316-1.393
		c1.203,0.262,2.101,0.916,2.693,1.961c0.592,1.047,0.783,2.27,0.575,3.676c-0.204,1.365-0.688,2.49-1.452,3.373
		c-0.764,0.883-2.554,1.664-5.37,2.346c-2.839,0.676-5.216,1.576-7.134,2.703c-1.915,1.127-3.652,3.027-5.213,5.699
		s-2.596,5.729-3.107,9.166c-0.99,6.652-0.037,12.193,2.858,16.625c2.896,4.43,7.452,7.326,13.67,8.686
		c6.996,1.531,13.263,0.938,18.798-1.781l-2.414-18.102c-3.974,4.129-7.477,5.863-10.506,5.199
		c-1.004-0.219-1.762-0.768-2.275-1.643s-0.686-1.887-0.516-3.031c0.204-1.369,0.697-2.48,1.481-3.34
		c0.782-0.857,2.63-1.562,5.542-2.105c2.956-0.537,5.452-1.346,7.488-2.426c2.035-1.082,3.814-2.982,5.334-5.703
		c1.521-2.719,2.564-5.984,3.131-9.789c1.023-6.875,0.154-12.664-2.609-17.371c-2.762-4.707-6.807-7.643-12.133-8.809
		C234.501-47.273,226.753-46.395,218.481-43.055z"/>
	<text transform="matrix(1 0 0 -1 77.6113 -85.3906)" fill="#FFFFFF" font-family="'GillSans-ExtraBold'" font-size="36">Museum</text>
	<polygon fill="#F9ED12" stroke="#FFEB76" stroke-width="8" points="153.332,36.803 131.413,59.043 100.465,54.867 115.067,81.107 
		100.45,108.223 131.401,102.203 153.31,123.127 157.832,93.168 185.995,78.994 157.841,66.496 	"/>
</symbol>
<use xlink:href="#Bloomsburg_Museum_Logo"  width="559.965" height="340" id="XMLID_7_" x="-279.965" y="-170" transform="matrix(0.6376 0 0 -0.6063 135.2427 104.0708)" overflow="visible"/>
</svg>
