<?xml version="1.0" encoding="utf-8"?>
<!-- Generator: Adobe Illustrator 14.0.0, SVG Export Plug-In . SVG Version: 6.00 Build 43363)  -->
<!DOCTYPE svg PUBLIC "-//W3C//DTD SVG 1.1//EN" "http://www.w3.org/Graphics/SVG/1.1/DTD/svg11.dtd">
<svg version="1.1" id="Layer_1" xmlns="http://www.w3.org/2000/svg" xmlns:xlink="http://www.w3.org/1999/xlink" x="0px" y="0px"
	 width="755.551px" height="585.438px" viewBox="0 0 755.551 585.438" enable-background="new 0 0 755.551 585.438"
	 xml:space="preserve">
<symbol  id="Star_bg" viewBox="-378.138 -292.719 756.276 585.438">
	<polygon fill="#FFC950" points="377.921,-292.719 -377.629,-292.719 -377.629,292.719 377.921,292.719 	"/>
	<polygon fill="#F4B442" points="65.159,-275.404 -55.977,-150.89 -227.222,-180.09 -146.236,-26.406 -226.925,127.435 
		-55.736,97.902 65.642,222.182 90.454,50.246 246.159,-26.786 90.306,-103.517 	"/>
	<polygon fill="#F4B442" points="377.606,-0.758 309.019,-72.588 293.724,25.543 204.214,68.576 292.817,113.447 306.083,211.875 
		378.138,141.475 	"/>
	<polygon fill="#F4B442" points="-112.52,194.409 -148.936,193.765 -169.049,163.401 -180.916,197.835 -216.008,207.581 
		-186.926,229.508 -188.502,265.896 -158.663,245.012 -124.542,257.754 -135.182,222.921 	"/>
	<polygon fill="#F4B442" points="328.56,-275.404 304.593,-247.979 268.413,-252.175 287.089,-220.907 271.919,-187.796 
		307.429,-195.896 334.231,-171.234 337.501,-207.509 369.237,-225.381 335.749,-239.7 	"/>
	<polygon fill="#F4B442" points="-279.232,-16.989 -378.122,-0.211 -378.138,142.028 -279.251,158.827 -325.458,70.913 	"/>
	<polygon fill="#F4B442" points="-178.44,-292.719 -202.407,-265.294 -238.586,-269.489 -219.911,-238.222 -235.081,-205.11 
		-199.571,-213.21 -172.768,-188.549 -169.499,-224.823 -137.762,-242.695 -171.251,-257.015 	"/>
</symbol>
<use xlink:href="#Star_bg"  width="756.276" height="585.438" id="XMLID_9_" x="-378.138" y="-292.719" transform="matrix(1 0 0 -1 377.7754 292.7188)" overflow="visible"/>
</svg>
